# xmcd CD database file
# Copyright (C) 1993-1998 Ti Kan
#
# Track frame offsets:
#	182
#	12965
#	27805
#	39182
#	52560
#	67210
#	82907
#	93820
#	107640
#	123172
#	138447
#	148297
#	160792
#	173847
#
# Disc length: 2493 seconds
#
# Revision: 0
# Processed by: cddbd v1.4b41PL1 Copyright (c) Steve Scherf et al.
# Submitted via: CDmax 1.5
#
DISCID=a709bb0e
DTITLE=DON WILLIAMS - YOU´RE MY BEST FRIEND
DYEAR=1900
DGENRE=
TTITLE0=You´re My Best Friend
TTITLE1=When I´m With You
TTITLE2=It Must Be Love
TTITLE3=Where Are You
TTITLE4=My Woman´s Love
TTITLE5=Till The Rivers All Run Dry
TTITLE6=(Turn Out The Lights) And Love Me Tonight
TTITLE7=I´m Just A Country Boy
TTITLE8=All I´m Missing Is You
TTITLE9=Don´t You think It´s Time
TTITLE10=Endless Sleep
TTITLE11=Some Broken Hearts Never Mend
TTITLE12=I´m Getting Good At Missing You
TTITLE13=Goodybye Isn´t Really Good At All
EXTD=
EXTT0=
EXTT1=
EXTT2=
EXTT3=
EXTT4=
EXTT5=
EXTT6=
EXTT7=
EXTT8=
EXTT9=
EXTT10=
EXTT11=
EXTT12=
EXTT13=
PLAYORDER=
